<svg width="20" height="21" viewBox="0 0 20 21" fill="none" xmlns="http://www.w3.org/2000/svg">
<path d="M12.1083 8.86786L7.8916 13.0845C7.34994 12.5429 7.0166 11.8012 7.0166 10.9762C7.0166 9.32619 8.34993 7.99286 9.99993 7.99286C10.8249 7.99286 11.5666 8.32619 12.1083 8.86786Z" stroke="#6C6F72" stroke-width="1.5" stroke-linecap="round" stroke-linejoin="round"/>
<path d="M14.8501 5.78453C13.3918 4.68453 11.7251 4.08453 10.0001 4.08453C7.05845 4.08453 4.31678 5.81787 2.40845 8.81787C1.65845 9.99287 1.65845 11.9679 2.40845 13.1429C3.06678 14.1762 3.83345 15.0679 4.66678 15.7845" stroke="#6C6F72" stroke-width="1.5" stroke-linecap="round" stroke-linejoin="round"/>
<path d="M7.0166 17.2512C7.9666 17.6512 8.97493 17.8679 9.99993 17.8679C12.9416 17.8679 15.6833 16.1345 17.5916 13.1345C18.3416 11.9595 18.3416 9.98453 17.5916 8.80953C17.3166 8.3762 17.0166 7.96787 16.7083 7.58453" stroke="#6C6F72" stroke-width="1.5" stroke-linecap="round" stroke-linejoin="round"/>
<path d="M12.925 11.5595C12.7083 12.7345 11.75 13.6929 10.575 13.9095" stroke="#6C6F72" stroke-width="1.5" stroke-linecap="round" stroke-linejoin="round"/>
<path d="M7.89175 13.0845L1.66675 19.3095" stroke="#6C6F72" stroke-width="1.5" stroke-linecap="round" stroke-linejoin="round"/>
<path d="M18.3334 2.64285L12.1084 8.86785" stroke="#6C6F72" stroke-width="1.5" stroke-linecap="round" stroke-linejoin="round"/>
</svg>
